<svg xmlns="http://www.w3.org/2000/svg" version="1.1" xmlns:xlink="http://www.w3.org/1999/xlink" xmlns:svgjs="http://svgjs.dev/svgjs" width="1500" height="1500" viewBox="0 0 1500 1500"><rect width="1500" height="1500" fill="#ffffff"></rect><g transform="matrix(0.6666666666666666,0,0,0.6666666666666666,249.50000000000006,249.50000000000006)"><svg viewBox="0 0 280 280" data-background-color="#ffffff" preserveAspectRatio="xMidYMid meet" height="1500" width="1500" xmlns="http://www.w3.org/2000/svg" xmlns:xlink="http://www.w3.org/1999/xlink"><g id="tight-bounds" transform="matrix(1,0,0,1,0.13999999999998636,0.13999999999998636)"><svg viewBox="0 0 279.72 279.72" height="279.72" width="279.72"><g><svg viewBox="0 0 279.72 279.72" height="279.72" width="279.72"><g><svg viewBox="0 0 279.72 279.72" height="279.72" width="279.72"><g id="textblocktransform"><svg viewBox="0 0 279.72 279.72" height="279.72" width="279.72" id="textblock"><g><svg viewBox="0 0 279.72 279.72" height="279.72" width="279.72"><g transform="matrix(1,0,0,1,73.92936372216631,74.06656706996002)"><svg viewBox="0 0 131.8612725556674 131.58686586008" height="131.58686586008" width="131.8612725556674"><g><svg xmlns="http://www.w3.org/2000/svg" xmlns:xlink="http://www.w3.org/1999/xlink" version="1.1" x="0" y="0" viewBox="-16.222999636026806 -49.594 212.4571287427487 212.015" enable-background="new -25.167 -60.333 230 232.5" xml:space="preserve" height="131.58686586008" width="131.8612725556674" class="icon-xg-0" data-fill-palette-color="accent" id="xg-0"><path d="M13.117 131.433l3.908 30.988h38.549c-2.463-26.235-4.538-53.131-8.715-77.688-0.87-8.455-8.303-37.146-18.046-38.199C8.04 43.045 28.55 77.669 23.984 84.947c-12.88-2.984-16.07-30.419-16.677-40.323-0.599-9.716 0.137-19.495 1.778-29.081 1.729-6.368 4.619-16.597-3.504-18.946 0.037 0.011 0.072 0.021 0.108 0.032C5.651-3.383 5.62-3.393 5.577-3.405-10.647-8.28-14.2 39.599-15.265 49.811c-2.309 22.142-1.199 46.957 11.86 65.897C-1.123 119.017 12.878 129.116 13.117 131.433z" fill="#000000" data-fill-palette-color="accent"></path><path d="M162.986 162.421l3.908-30.988c0.238-2.316 14.24-12.416 16.521-15.725 13.061-18.94 14.17-43.756 11.861-65.897-1.064-10.212-4.619-58.091-20.842-53.216-0.043 0.013-0.076 0.022-0.113 0.034 0.035-0.011 0.072-0.021 0.109-0.032-8.125 2.35-5.234 12.578-3.506 18.946 1.643 9.586 2.377 19.365 1.779 29.081-0.607 9.904-3.799 37.339-16.68 40.323-4.564-7.278 15.945-41.902-4.828-38.414-9.742 1.054-17.177 29.744-18.047 38.199-4.177 24.558-6.252 51.453-8.716 77.688H162.986z" fill="#000000" data-fill-palette-color="accent"></path><path d="M73.465 45.896V24.268H61.644c-9.73 0-17.646-8.576-17.646-19.115v-35.63c0-10.541 7.916-19.117 17.646-19.117h56.72c9.733 0 17.649 8.577 17.649 19.117V5.151c0 10.54-7.916 19.117-17.649 19.117h-23.27L73.465 45.896zM118.364-44.247h-56.72c-6.782 0-12.299 6.177-12.299 13.77V5.151c0 7.593 5.518 13.77 12.299 13.77h17.167v14.066L92.88 18.921h25.483c6.784 0 12.302-6.177 12.302-13.77v-35.628C130.666-38.07 125.148-44.247 118.364-44.247z" fill="#000000" data-fill-palette-color="accent"></path><g fill="#8abe53" data-fill-palette-color="accent"><rect x="66.733" y="-26.747" width="46.546" height="5.347" fill="#000000" data-fill-palette-color="accent"></rect></g><g fill="#8abe53" data-fill-palette-color="accent"><rect x="66.733" y="-16.052" width="46.546" height="5.347" fill="#000000" data-fill-palette-color="accent"></rect></g><g fill="#8abe53" data-fill-palette-color="accent"><rect x="66.733" y="-5.358" width="46.546" height="5.347" fill="#000000" data-fill-palette-color="accent"></rect></g></svg></g></svg></g><g><path d="M5.004 95.599v0c1.076-3.24 2.559-5.304 4.449-6.192v0l0.605 1.075c-1.649 0.843-2.926 2.626-3.83 5.348v0c-1.357 4.087-0.412 6.669 2.834 7.748v0c1.259 0.418 2.429 0.253 3.508-0.496 1.07-0.744 2.039-1.766 2.908-3.065 0.866-1.293 1.753-2.582 2.661-3.869 0.906-1.28 2-2.26 3.282-2.941 1.287-0.672 2.701-0.753 4.242-0.241v0c1.81 0.601 3.003 1.824 3.578 3.668 0.581 1.846 0.402 4.183-0.537 7.01v0c-0.462 1.391-1.1 2.697-1.913 3.92-0.816 1.229-1.687 2.054-2.614 2.475v0l-0.595-1.071c1.671-0.931 2.967-2.784 3.889-5.558v0c0.843-2.539 1.01-4.61 0.502-6.214-0.513-1.612-1.4-2.628-2.659-3.046v0c-1.305-0.434-2.53-0.287-3.675 0.44-1.142 0.72-2.151 1.729-3.026 3.026-0.879 1.288-1.773 2.576-2.681 3.862-0.906 1.28-1.983 2.266-3.233 2.958-1.243 0.694-2.612 0.793-4.108 0.296v0c-2.014-0.669-3.288-1.842-3.823-3.52-0.531-1.669-0.452-3.54 0.236-5.613z" fill="#000000" data-fill-palette-color="primary"></path><path d="M41.062 76.876l-20.356-12.697 0.658-1.056 20.356 12.697z" fill="#000000" data-fill-palette-color="primary"></path><path d="M53.391 39.378l-1.421 1.318 0.915-7.111c-2.001-0.369-4.155 0.515-6.461 2.653v0c-1.009 0.935-1.759 1.828-2.252 2.68-0.492 0.852-0.759 1.835-0.801 2.949-0.037 1.109 0.312 2.345 1.048 3.707 0.74 1.368 1.888 2.891 3.443 4.57 1.555 1.678 2.985 2.935 4.288 3.772 1.308 0.842 2.516 1.286 3.625 1.333 1.109 0.037 2.107-0.157 2.993-0.583 0.887-0.426 1.835-1.107 2.844-2.042v0c2.286-2.119 3.333-4.178 3.139-6.175v0l-4.983-5.376 0.905-0.839 7.429 8.015c3.58 3.863 3.601 7.434 0.063 10.713v0l-3.551 3.291-0.846-0.912 3.551-3.291c1.516-1.405 2.26-2.834 2.232-4.288-0.033-1.459-1.09-3.311-3.172-5.557v0l-0.423-0.456c-0.249 1.927-1.416 3.857-3.499 5.788v0c-2.53 2.345-5.004 3.305-7.423 2.88-2.429-0.425-5.124-2.234-8.084-5.428-2.965-3.199-4.565-6.023-4.8-8.472-0.24-2.445 0.905-4.839 3.435-7.184v0c2.935-2.72 5.818-3.606 8.648-2.658v0z" fill="#000000" data-fill-palette-color="primary"></path><path d="M86.807 36.67l-1.125 0.531-10.251-21.69 1.125-0.532 21.476 13.874-9.281-19.637 1.115-0.528 10.252 21.691-1.116 0.527-21.494-13.911z" fill="#000000" data-fill-palette-color="primary"></path><path d="M149.05 23.177l12.523 1.147-0.113 1.239-13.763-1.26 2.188-23.891 1.239 0.113z" fill="#000000" data-fill-palette-color="primary"></path><path d="M180.055 30.873l7.503-22.788 1.181 0.389-7.502 22.788z" fill="#000000" data-fill-palette-color="primary"></path><path d="M201.984 41.734l-1.044-0.678 13.077-20.114 1.043 0.678-0.53 25.563 11.839-18.211 1.034 0.673-13.076 20.114-1.035-0.673 0.553-25.597z" fill="#000000" data-fill-palette-color="primary"></path><path d="M249.097 63.937l-1.208-1.517 7.022 1.449c0.519-1.968-0.2-4.182-2.158-6.643v0c-0.856-1.076-1.691-1.892-2.503-2.447-0.812-0.555-1.772-0.895-2.88-1.021-1.103-0.121-2.362 0.135-3.776 0.765-1.42 0.635-3.025 1.665-4.816 3.089-1.79 1.424-3.152 2.755-4.084 3.992-0.938 1.241-1.472 2.412-1.603 3.514-0.121 1.103-0.002 2.112 0.356 3.029 0.358 0.916 0.965 1.913 1.822 2.989v0c1.941 2.439 3.915 3.638 5.921 3.596v0l5.736-4.564 0.768 0.966-8.551 6.803c-4.122 3.279-7.684 3.031-10.688-0.744v0l-3.014-3.789 0.973-0.775 3.015 3.789c1.287 1.617 2.656 2.467 4.107 2.549 1.457 0.077 3.384-0.837 5.78-2.744v0l0.487-0.387c-1.903-0.394-3.739-1.702-5.508-3.925v0c-2.147-2.699-2.918-5.239-2.313-7.62 0.607-2.39 2.614-4.941 6.022-7.652 3.413-2.715 6.35-4.098 8.81-4.147 2.456-0.055 4.758 1.267 6.904 3.966v0c2.492 3.132 3.158 6.073 1.999 8.823v0z" fill="#000000" data-fill-palette-color="primary"></path><path d="M249.447 98.186l1.169-0.424 4.598 12.67 15.887-14.787-23.023-1.23-0.452-1.248 26.467 1.392-19.412 18.051z" fill="#000000" data-fill-palette-color="primary"></path><path d="M17.395 183.864l-0.468 0.137-1.364-4.667 6.194 3.417-1.556-5.324-10.081 2.947 1.787 6.11-0.468 0.137-1.923-6.578 11.016-3.221 2.028 6.936-6.195-3.417z" fill="#000000" data-fill-palette-color="secondary"></path><path d="M13.135 191.165l0.455-0.176 1.928 4.991 6.174-5.998-9.128-0.297-0.191-0.493 10.499 0.334-7.543 7.316z" fill="#000000" data-fill-palette-color="secondary"></path><path d="M26.522 197.96v0c0.575 1.227 0.712 2.227 0.411 3.002v0l-0.46-0.15c0.24-0.693 0.12-1.552-0.361-2.579v0c-0.724-1.546-1.7-2.031-2.927-1.457v0c-0.476 0.223-0.766 0.588-0.872 1.096-0.106 0.508-0.107 1.066-0.005 1.674 0.102 0.609 0.199 1.223 0.292 1.844 0.09 0.615 0.041 1.195-0.147 1.741-0.181 0.543-0.565 0.952-1.153 1.227v0c-0.682 0.32-1.359 0.293-2.03-0.079-0.671-0.373-1.257-1.094-1.758-2.164v0c-0.246-0.526-0.416-1.076-0.51-1.651-0.103-0.578-0.08-1.05 0.068-1.417v0l0.465 0.137c-0.226 0.724-0.092 1.612 0.401 2.663v0c0.449 0.958 0.966 1.597 1.551 1.918 0.588 0.327 1.121 0.379 1.597 0.156v0c0.494-0.232 0.807-0.607 0.937-1.126 0.128-0.525 0.141-1.093 0.039-1.701-0.096-0.612-0.188-1.225-0.278-1.839-0.09-0.615-0.05-1.19 0.118-1.727 0.172-0.546 0.539-0.951 1.102-1.215v0c0.764-0.358 1.45-0.367 2.06-0.027 0.607 0.334 1.094 0.892 1.46 1.674z" fill="#000000" data-fill-palette-color="secondary"></path><path d="M29.222 204.715l0.424-0.241 3.138 5.515-9.81 1.145-3.208 1.826-0.241-0.424 3.208-1.825 5.995-7.85 0.261 0.46-5.543 7.258 8.55-0.989z" fill="#000000" data-fill-palette-color="secondary"></path><path d="M30.782 222.249c0.283-0.935 1.121-1.914 2.516-2.935 1.394-1.021 2.577-1.523 3.548-1.507 0.976 0.022 1.866 0.582 2.671 1.681 0.809 1.104 1.087 2.121 0.834 3.052v0l-0.482-0.097c0.242-0.769-0.006-1.658-0.745-2.667v0c-0.323-0.441-0.642-0.777-0.957-1.008-0.306-0.23-0.679-0.377-1.119-0.44-0.439-0.073-0.943 0.005-1.512 0.234-0.569 0.229-1.219 0.61-1.95 1.145-0.736 0.539-1.299 1.046-1.689 1.52-0.39 0.474-0.616 0.931-0.679 1.371-0.067 0.435-0.04 0.835 0.082 1.199 0.131 0.366 0.358 0.77 0.681 1.211v0c0.739 1.009 1.509 1.516 2.309 1.521v0l-0.053 0.489c-0.963-0.04-1.849-0.612-2.658-1.716-0.805-1.098-1.07-2.116-0.797-3.053z" fill="#000000" data-fill-palette-color="secondary"></path><path d="M45.901 228.305c-0.155-0.359-0.41-0.746-0.766-1.159-0.356-0.414-0.701-0.724-1.034-0.93-0.323-0.205-0.706-0.322-1.15-0.35-0.443-0.038-0.94 0.08-1.489 0.352-0.55 0.273-1.167 0.705-1.853 1.296-0.691 0.595-1.212 1.145-1.564 1.647-0.351 0.503-0.541 0.977-0.569 1.421-0.033 0.439 0.026 0.835 0.176 1.189 0.16 0.355 0.418 0.739 0.775 1.153 0.356 0.414 0.698 0.726 1.025 0.937 0.333 0.206 0.718 0.325 1.157 0.358 0.439 0.033 0.933-0.087 1.482-0.36 0.55-0.273 1.17-0.707 1.862-1.302 0.686-0.591 1.205-1.138 1.555-1.642 0.351-0.503 0.543-0.974 0.576-1.412 0.038-0.443-0.023-0.842-0.183-1.198zM40.844 234.714c-0.97 0.06-1.902-0.428-2.795-1.465-0.889-1.032-1.234-2.025-1.035-2.981 0.208-0.955 0.967-1.996 2.277-3.124 1.309-1.128 2.449-1.722 3.418-1.781 0.974-0.055 1.906 0.434 2.795 1.465 0.893 1.037 1.238 2.03 1.035 2.981-0.199 0.956-0.952 1.997-2.262 3.125-1.309 1.128-2.454 1.721-3.433 1.78z" fill="#000000" data-fill-palette-color="secondary"></path><path d="M44.734 240.065l0.325-0.334 4.537 4.422 5.818-5.97-5.22 0.067-0.066-5.219-6.159 6.318-0.342-0.362 6.622-6.793 0.356 0.347 0.074 5.212 5.212-0.06 0.349 0.34-6.636 6.809z" fill="#000000" data-fill-palette-color="secondary"></path><path d="M54.386 248.747l0.292-0.364 4.941 3.966 5.217-6.501-5.188 0.568-0.568-5.189-5.523 6.881-0.375-0.328 5.938-7.398 0.388 0.312 0.574 5.18 5.183-0.56 0.38 0.305-5.951 7.415z" fill="#000000" data-fill-palette-color="secondary"></path><path d="M68.617 247.612l0.415 0.276-2.627 3.955c-0.902 1.359-1.321 2.458-1.256 3.298 0.069 0.834 0.48 1.501 1.234 2.002 0.76 0.505 1.538 0.627 2.333 0.367 0.799-0.266 1.65-1.078 2.552-2.438v0l2.626-3.956 0.406 0.27-2.627 3.956c-1.816 2.735-3.671 3.474-5.565 2.216-1.894-1.258-1.934-3.254-0.118-5.99v0z" fill="#000000" data-fill-palette-color="secondary"></path><path d="M73.29 261.725l-0.435-0.241 4.612-8.314 0.435 0.242 0.495 10.115 4.174-7.525 0.436 0.242-4.613 8.313-0.435-0.241-0.484-10.134z" fill="#000000" data-fill-palette-color="secondary"></path><path d="M82.405 266.478l4.122-8.567 0.449 0.216-4.123 8.567z" fill="#000000" data-fill-palette-color="secondary"></path><path d="M87.758 267.724c-0.248-0.945-0.044-2.218 0.61-3.816 0.655-1.599 1.401-2.645 2.238-3.14 0.843-0.491 1.895-0.479 3.155 0.038 1.266 0.519 2.035 1.24 2.307 2.165v0l-0.462 0.17c-0.195-0.782-0.872-1.41-2.029-1.884v0c-0.505-0.207-0.953-0.327-1.343-0.36-0.381-0.036-0.776 0.033-1.184 0.21-0.412 0.167-0.801 0.497-1.167 0.99-0.366 0.492-0.721 1.158-1.064 1.995-0.346 0.844-0.561 1.57-0.645 2.178-0.085 0.608-0.039 1.116 0.138 1.524 0.17 0.406 0.402 0.732 0.696 0.98 0.303 0.244 0.708 0.469 1.214 0.676v0c1.158 0.474 2.079 0.504 2.764 0.09v0l0.21 0.445c-0.842 0.469-1.896 0.445-3.163-0.074-1.26-0.516-2.018-1.245-2.275-2.187z" fill="#000000" data-fill-palette-color="secondary"></path><path d="M97.346 272.37l0.148-0.464 5.099 1.619-0.815-8.569-5.944 6.934-0.504-0.16 6.831-7.98 0.986 10.462z" fill="#000000" data-fill-palette-color="secondary"></path><path d="M107.336 265.488l7.17 1.716-0.114 0.474-3.347-0.801-2.099 8.772-0.474-0.113 2.099-8.773-3.348-0.801z" fill="#000000" data-fill-palette-color="secondary"></path><path d="M115.387 277.054l1.809-9.333 0.488 0.094-1.809 9.334z" fill="#000000" data-fill-palette-color="secondary"></path><path d="M126.197 269.497c-0.355-0.164-0.803-0.281-1.345-0.351-0.542-0.07-1.005-0.07-1.39-0.002-0.377 0.063-0.741 0.232-1.09 0.508-0.355 0.268-0.646 0.687-0.873 1.257-0.227 0.57-0.398 1.304-0.514 2.202-0.117 0.905-0.138 1.662-0.063 2.271 0.075 0.609 0.25 1.088 0.525 1.437 0.269 0.348 0.577 0.604 0.925 0.767 0.356 0.157 0.805 0.271 1.347 0.341 0.542 0.07 1.004 0.074 1.388 0.012 0.385-0.069 0.752-0.237 1.101-0.506 0.348-0.269 0.636-0.688 0.862-1.258 0.227-0.57 0.399-1.308 0.516-2.212 0.116-0.898 0.136-1.651 0.062-2.261-0.075-0.609-0.246-1.088-0.516-1.436-0.268-0.355-0.58-0.611-0.935-0.769zM126.714 277.645c-0.682 0.693-1.701 0.951-3.059 0.776-1.35-0.174-2.271-0.683-2.761-1.527-0.483-0.85-0.614-2.132-0.393-3.846 0.221-1.714 0.673-2.917 1.355-3.609 0.689-0.692 1.708-0.95 3.058-0.776 1.357 0.175 2.278 0.684 2.761 1.527 0.49 0.844 0.625 2.123 0.404 3.836-0.221 1.714-0.676 2.92-1.365 3.619z" fill="#000000" data-fill-palette-color="secondary"></path><path d="M132.097 279.022l-0.498-0.025 0.467-9.496 0.497 0.025 4.911 8.857 0.422-8.595 0.497 0.025-0.466 9.495-0.498-0.024-4.909-8.878z" fill="#000000" data-fill-palette-color="secondary"></path><path d="M146.472 269.588l0.526-0.054 4.418 7.999 1.869-6.05 3.04 5.545 2.532-8.223-10.52 1.082-0.05-0.485 11.252-1.157-3.084 10.041-3.041-5.545-1.869 6.05z" fill="#000000" data-fill-palette-color="secondary"></path><path d="M163.684 277.171l-1.583-9.374 0.491-0.083 1.583 9.374z" fill="#000000" data-fill-palette-color="secondary"></path><path d="M165.19 267.188l7.178-1.676 0.111 0.474-3.352 0.783 2.051 8.783-0.474 0.111-2.052-8.783-3.351 0.782z" fill="#000000" data-fill-palette-color="secondary"></path><path d="M180.558 263.056l2.751 9.1-0.476 0.144-1.377-4.555-4.704 1.422 1.377 4.555-0.477 0.144-2.751-9.1 0.477-0.144 1.233 4.079 4.704-1.422-1.233-4.079z" fill="#000000" data-fill-palette-color="secondary"></path><path d="M191.58 258.384v0c1.238-0.551 2.241-0.668 3.009-0.352v0l-0.159 0.457c-0.688-0.254-1.55-0.15-2.586 0.311v0c-1.56 0.694-2.064 1.66-1.513 2.898v0c0.214 0.48 0.573 0.778 1.079 0.893 0.505 0.116 1.063 0.128 1.674 0.038 0.611-0.09 1.227-0.175 1.849-0.256 0.616-0.078 1.195-0.018 1.737 0.18 0.539 0.191 0.941 0.584 1.205 1.177v0c0.306 0.688 0.267 1.364-0.119 2.028-0.386 0.663-1.118 1.235-2.198 1.716v0c-0.53 0.236-1.084 0.395-1.66 0.478-0.58 0.092-1.052 0.06-1.415-0.096v0l0.146-0.463c0.719 0.24 1.61 0.123 2.67-0.349v0c0.966-0.43 1.615-0.935 1.948-1.514 0.339-0.582 0.401-1.113 0.187-1.592v0c-0.222-0.499-0.591-0.819-1.108-0.96-0.523-0.138-1.09-0.162-1.7-0.071-0.613 0.084-1.228 0.165-1.844 0.242-0.616 0.078-1.191 0.027-1.725-0.152-0.543-0.182-0.94-0.557-1.193-1.125v0c-0.343-0.77-0.338-1.457 0.014-2.061 0.346-0.6 0.913-1.076 1.702-1.427z" fill="#000000" data-fill-palette-color="secondary"></path><path d="M202.081 264.123l-4.293-8.482 0.444-0.225 4.293 8.483z" fill="#000000" data-fill-palette-color="secondary"></path><path d="M207.154 253.889l-0.662 0.387 0.964-2.665c-0.74-0.32-1.649-0.164-2.73 0.467v0c-0.471 0.276-0.838 0.558-1.101 0.848-0.26 0.28-0.445 0.636-0.553 1.068-0.117 0.429-0.092 0.938 0.077 1.528 0.169 0.59 0.482 1.276 0.939 2.057 0.461 0.788 0.907 1.4 1.338 1.836 0.431 0.436 0.863 0.709 1.294 0.817 0.425 0.111 0.826 0.125 1.202 0.042 0.378-0.093 0.803-0.277 1.274-0.553v0c1.068-0.625 1.652-1.33 1.752-2.118v0l-1.465-2.506 0.42-0.246 2.183 3.732c1.054 1.802 0.754 3.186-0.899 4.153v0l-1.655 0.968-0.246-0.42 1.655-0.969c0.71-0.415 1.119-0.907 1.228-1.474 0.118-0.565-0.13-1.373-0.745-2.423v0l-0.12-0.206c-0.265 0.724-0.884 1.37-1.857 1.938v0c-1.175 0.687-2.215 0.847-3.119 0.479-0.901-0.378-1.788-1.312-2.66-2.804-0.872-1.492-1.25-2.72-1.134-3.684 0.122-0.968 0.771-1.796 1.946-2.484v0c1.372-0.803 2.565-0.899 3.578-0.29v0z" fill="#000000" data-fill-palette-color="secondary"></path><path d="M215.984 255.782l-0.409 0.283-5.415-7.814 0.409-0.283 9.29 4.031-4.901-7.073 0.409-0.283 5.415 7.814-0.409 0.284-9.302-4.049z" fill="#000000" data-fill-palette-color="secondary"></path><path d="M229.063 245.011l3.721-3.32 0.324 0.364-4.092 3.651-6.33-7.093 0.372-0.332z" fill="#000000" data-fill-palette-color="secondary"></path><path d="M236.016 239.071l-0.351-0.338 3.714-3.851-8.041-3.073 3.577 8.404-0.367 0.381-4.121-9.663 9.813 3.759z" fill="#000000" data-fill-palette-color="secondary"></path><path d="M242.682 231.847l-0.32 0.381-7.281-6.114 0.32-0.381 10.024 1.445-6.59-5.534 0.32-0.381 7.281 6.114-0.32 0.381-10.04-1.458z" fill="#000000" data-fill-palette-color="secondary"></path><path d="M246.553 216.244l-0.443 0.627-0.224-2.826c-0.806 0.014-1.57 0.532-2.292 1.554v0c-0.315 0.446-0.533 0.855-0.652 1.228-0.121 0.363-0.142 0.763-0.062 1.201 0.07 0.439 0.304 0.892 0.702 1.359 0.398 0.467 0.966 0.962 1.705 1.485 0.745 0.527 1.404 0.899 1.978 1.119 0.573 0.219 1.078 0.288 1.516 0.208 0.434-0.074 0.804-0.227 1.111-0.459 0.306-0.241 0.616-0.584 0.932-1.03v0c0.714-1.01 0.954-1.895 0.719-2.652v0l-2.37-1.676 0.281-0.398 3.53 2.496c1.704 1.205 2.004 2.589 0.899 4.152v0l-1.107 1.566-0.398-0.281 1.108-1.566c0.475-0.672 0.644-1.288 0.507-1.85-0.127-0.563-0.686-1.196-1.679-1.899v0l-0.195-0.137c0.058 0.769-0.239 1.613-0.889 2.533v0c-0.786 1.112-1.667 1.687-2.642 1.725-0.977 0.029-2.171-0.455-3.582-1.453-1.411-0.997-2.263-1.959-2.556-2.886-0.289-0.932-0.041-1.954 0.746-3.066v0c0.918-1.298 1.963-1.879 3.137-1.744v0z" fill="#000000" data-fill-palette-color="secondary"></path><path d="M246.867 210.017l0.254-0.428 4.081 2.428c1.402 0.834 2.521 1.198 3.356 1.091 0.829-0.11 1.475-0.554 1.938-1.332 0.466-0.784 0.55-1.567 0.251-2.348-0.305-0.785-1.159-1.594-2.561-2.428v0l-4.081-2.427 0.249-0.419 4.081 2.427c2.822 1.678 3.651 3.495 2.489 5.449-1.162 1.954-3.155 2.093-5.976 0.414v0z" fill="#000000" data-fill-palette-color="secondary"></path><path d="M260.894 204.276l-0.439-0.212 2.326-4.818-8.599-0.408 6.023 6.867-0.23 0.476-6.932-7.893 10.496 0.507z" fill="#000000" data-fill-palette-color="secondary"></path><path d="M260.539 189.15l-0.283 0.713-0.882-2.694c-0.78 0.203-1.401 0.886-1.863 2.049v0c-0.202 0.507-0.317 0.956-0.346 1.346-0.033 0.381 0.041 0.775 0.222 1.182 0.172 0.41 0.505 0.796 1.002 1.157 0.496 0.361 1.165 0.709 2.007 1.043 0.848 0.337 1.576 0.545 2.184 0.623 0.609 0.078 1.116 0.027 1.523-0.154 0.404-0.174 0.728-0.41 0.972-0.706 0.241-0.306 0.462-0.713 0.664-1.22v0c0.457-1.15 0.483-2.066 0.077-2.748v0l-2.698-1.072 0.18-0.453 4.018 1.597c1.94 0.771 2.556 2.046 1.848 3.825v0l-0.708 1.783-0.453-0.18 0.709-1.783c0.304-0.764 0.324-1.404 0.059-1.917-0.255-0.518-0.948-1.002-2.079-1.451v0l-0.221-0.089c0.236 0.734 0.147 1.624-0.27 2.671v0c-0.503 1.265-1.224 2.031-2.163 2.298-0.943 0.257-2.217 0.067-3.822-0.571-1.606-0.638-2.66-1.373-3.163-2.206-0.5-0.838-0.498-1.89 0.005-3.155v0c0.587-1.477 1.467-2.288 2.64-2.432v0z" fill="#000000" data-fill-palette-color="secondary"></path><path d="M269.042 179.547l0.424-0.249c0.543 0.796 0.613 1.849 0.21 3.156-0.401 1.301-1.058 2.122-1.972 2.463-0.919 0.332-2.205 0.243-3.857-0.265-1.651-0.508-2.761-1.157-3.327-1.946-0.565-0.796-0.647-1.844-0.247-3.146v0c0.468-1.519 1.28-2.397 2.438-2.634v0l2.027 4.833-0.226 0.733-2.079-4.979c-0.761 0.265-1.326 0.995-1.694 2.19v0c-0.161 0.522-0.24 0.978-0.238 1.37-0.002 0.383 0.103 0.769 0.316 1.16 0.204 0.395 0.567 0.753 1.091 1.073 0.523 0.32 1.218 0.613 2.083 0.88 0.872 0.268 1.614 0.417 2.227 0.447 0.613 0.03 1.115-0.062 1.505-0.274 0.389-0.206 0.693-0.466 0.914-0.782 0.215-0.324 0.404-0.747 0.564-1.269v0c0.368-1.196 0.315-2.116-0.159-2.761z" fill="#000000" data-fill-palette-color="secondary"></path><path d="M0 143.211c0-5.166 4.188-9.355 9.355-9.354 5.166 0 9.355 4.188 9.354 9.354 0 5.166-4.188 9.355-9.354 9.355-5.166 0-9.355-4.188-9.355-9.355z" fill="#000000" data-fill-palette-color="primary"></path><path d="M261.011 143.211c0-5.166 4.188-9.355 9.354-9.354 5.166 0 9.355 4.188 9.355 9.354 0 5.166-4.188 9.355-9.355 9.355-5.166 0-9.355-4.188-9.354-9.355z" fill="#000000" data-fill-palette-color="primary"></path></g></svg></g></svg></g></svg></g></svg></g><defs></defs></svg><rect width="279.72" height="279.72" fill="none" stroke="none" visibility="hidden"></rect></g></svg></g></svg>